<svg width="28" height="28" viewBox="0 0 28 28" fill="none" xmlns="http://www.w3.org/2000/svg">
<g id="Frame">
<path id="Vector" d="M22.75 26.25H19.25C18.7863 26.2486 18.342 26.0638 18.0141 25.7359C17.6862 25.408 17.5014 24.9637 17.5 24.5V18.375C17.0363 18.3736 16.592 18.1888 16.2641 17.8609C15.9362 17.533 15.7514 17.0887 15.75 16.625V11.375C15.7436 11.0285 15.8071 10.6843 15.9368 10.3629C16.0664 10.0415 16.2595 9.74961 16.5046 9.50457C16.7496 9.25952 17.0415 9.06641 17.3629 8.93676C17.6843 8.80711 18.0285 8.74359 18.375 8.75H23.625C23.9715 8.74359 24.3157 8.80711 24.6371 8.93676C24.9585 9.06641 25.2504 9.25952 25.4954 9.50457C25.7405 9.74961 25.9336 10.0415 26.0632 10.3629C26.1929 10.6843 26.2564 11.0285 26.25 11.375V16.625C26.2486 17.0887 26.0638 17.533 25.7359 17.8609C25.408 18.1888 24.9637 18.3736 24.5 18.375V24.5C24.4986 24.9637 24.3138 25.408 23.9859 25.7359C23.658 26.0638 23.2137 26.2486 22.75 26.25ZM18.375 10.5C18.2583 10.493 18.1414 10.5108 18.032 10.5523C17.9227 10.5938 17.8234 10.658 17.7407 10.7407C17.658 10.8234 17.5938 10.9227 17.5523 11.032C17.5108 11.1414 17.493 11.2583 17.5 11.375V16.625H19.25V24.5H22.75V16.625H24.5V11.375C24.507 11.2583 24.4892 11.1414 24.4477 11.032C24.4062 10.9227 24.342 10.8234 24.2593 10.7407C24.1766 10.658 24.0773 10.5938 23.968 10.5523C23.8586 10.5108 23.7417 10.493 23.625 10.5H18.375ZM21 7.875C20.3078 7.875 19.6311 7.66973 19.0555 7.28514C18.4799 6.90056 18.0313 6.35393 17.7664 5.71439C17.5015 5.07485 17.4322 4.37112 17.5673 3.69219C17.7023 3.01325 18.0356 2.38961 18.5251 1.90013C19.0146 1.41064 19.6383 1.0773 20.3172 0.942253C20.9961 0.807205 21.6999 0.876516 22.3394 1.14142C22.9789 1.40633 23.5256 1.85493 23.9101 2.43051C24.2947 3.00608 24.5 3.68277 24.5 4.375C24.4972 5.30241 24.1276 6.19104 23.4718 6.84682C22.816 7.50259 21.9274 7.87223 21 7.875ZM21 2.625C20.6539 2.625 20.3155 2.72764 20.0278 2.91993C19.74 3.11222 19.5157 3.38553 19.3832 3.70531C19.2508 4.02508 19.2161 4.37694 19.2836 4.71641C19.3512 5.05588 19.5178 5.3677 19.7626 5.61244C20.0073 5.85718 20.3191 6.02385 20.6586 6.09138C20.9981 6.1589 21.3499 6.12424 21.6697 5.99179C21.9895 5.85934 22.2628 5.63504 22.4551 5.34725C22.6474 5.05946 22.75 4.72112 22.75 4.375C22.7486 3.9113 22.5638 3.46698 22.2359 3.13909C21.908 2.81121 21.4637 2.62639 21 2.625ZM8.75001 17.661V10.5H7.00001V17.661C6.41619 17.8674 5.92415 18.2736 5.61083 18.8077C5.29751 19.3418 5.1831 19.9695 5.28781 20.5798C5.39252 21.1901 5.70962 21.7437 6.18305 22.1428C6.65649 22.542 7.25578 22.7609 7.87501 22.7609C8.49423 22.7609 9.09352 22.542 9.56696 22.1428C10.0404 21.7437 10.3575 21.1901 10.4622 20.5798C10.5669 19.9695 10.4525 19.3418 10.1392 18.8077C9.82586 18.2736 9.33382 17.8674 8.75001 17.661Z" fill="white"/>
<path id="Vector_2" d="M7.87503 26.25C6.66926 26.2514 5.48996 25.8964 4.48523 25.2298C3.48049 24.5632 2.69511 23.6146 2.2277 22.5031C1.7603 21.3916 1.6317 20.1667 1.85806 18.9824C2.08443 17.7981 2.65566 16.707 3.50003 15.8463V6.125C3.50003 4.96468 3.96096 3.85188 4.78144 3.03141C5.60191 2.21094 6.71471 1.75 7.87503 1.75C9.03535 1.75 10.1481 2.21094 10.9686 3.03141C11.7891 3.85188 12.25 4.96468 12.25 6.125V15.8463C13.0944 16.707 13.6656 17.7981 13.892 18.9824C14.1184 20.1667 13.9898 21.3916 13.5224 22.5031C13.0549 23.6146 12.2696 24.5632 11.2648 25.2298C10.2601 25.8964 9.0808 26.2514 7.87503 26.25ZM7.87503 3.5C7.17905 3.5007 6.51177 3.77748 6.01964 4.26961C5.52751 4.76174 5.25072 5.42902 5.25003 6.125V16.6101L4.95953 16.8718C4.2988 17.4623 3.83298 18.2396 3.62374 19.1007C3.41449 19.9618 3.47168 20.8662 3.78775 21.6941C4.10381 22.522 4.66383 23.2344 5.3937 23.737C6.12356 24.2396 6.98885 24.5087 7.87503 24.5087C8.76121 24.5087 9.6265 24.2396 10.3564 23.737C11.0862 23.2344 11.6463 22.522 11.9623 21.6941C12.2784 20.8662 12.3356 19.9618 12.1263 19.1007C11.9171 18.2396 11.4513 17.4623 10.7905 16.8718L10.5 16.6101V6.125C10.4993 5.42902 10.2225 4.76174 9.73042 4.26961C9.23828 3.77748 8.57101 3.5007 7.87503 3.5Z" fill="white"/>
</g>
</svg>
