<svg width="36" height="36" viewBox="0 0 36 36" fill="none" xmlns="http://www.w3.org/2000/svg">
<g id="Frame">
<path id="Vector" d="M4.5 19.5001H6V30.0001C6 31.6546 7.3455 33.0001 9 33.0001H27C28.6545 33.0001 30 31.6546 30 30.0001V19.5001H31.5C31.7966 19.5 32.0866 19.412 32.3332 19.2472C32.5798 19.0823 32.772 18.8481 32.8855 18.574C32.999 18.3 33.0287 17.9984 32.9709 17.7075C32.913 17.4166 32.7702 17.1493 32.5605 16.9396L19.0605 3.43956C18.9213 3.30014 18.756 3.18953 18.574 3.11407C18.3921 3.0386 18.197 2.99976 18 2.99976C17.803 2.99976 17.6079 3.0386 17.426 3.11407C17.244 3.18953 17.0787 3.30014 16.9395 3.43956L3.4395 16.9396C3.22979 17.1493 3.08698 17.4166 3.02913 17.7075C2.97127 17.9984 3.00098 18.3 3.11448 18.574C3.22799 18.8481 3.4202 19.0823 3.66681 19.2472C3.91343 19.412 4.20338 19.5 4.5 19.5001ZM15 30.0001V22.5001H21V30.0001H15ZM18 6.62106L27 15.6211V22.5001L27.0015 30.0001H24V22.5001C24 20.8456 22.6545 19.5001 21 19.5001H15C13.3455 19.5001 12 20.8456 12 22.5001V30.0001H9V15.6211L18 6.62106Z" fill="#7B7980"/>
</g>
</svg>
