<svg width="29" height="28" viewBox="0 0 29 28" fill="none" xmlns="http://www.w3.org/2000/svg">
<g id="Frame">
<path id="Vector" d="M17.0331 21.0001C17.5211 21.0001 17.9361 20.8297 18.2781 20.4891C18.6201 20.1484 18.7907 19.7354 18.7899 19.2501C18.7899 18.764 18.6189 18.3506 18.2769 18.0099C17.9349 17.6692 17.5203 17.4993 17.0331 17.5001C16.5451 17.5001 16.1301 17.6704 15.7881 18.0111C15.4461 18.3517 15.2755 18.7647 15.2763 19.2501C15.2763 19.7362 15.4473 20.1496 15.7893 20.4902C16.1312 20.8309 16.5459 21.0009 17.0331 21.0001ZM10.2986 20.1251C10.5329 20.3584 10.8062 20.4751 11.1185 20.4751C11.4308 20.4751 11.7041 20.3584 11.9383 20.1251L17.9115 14.1751C18.1457 13.9417 18.2628 13.6695 18.2628 13.3584C18.2628 13.0473 18.1457 12.7751 17.9115 12.5417C17.6772 12.3084 17.3989 12.1917 17.0764 12.1917C16.7539 12.1917 16.476 12.3084 16.2425 12.5417L10.2986 18.4626C10.0644 18.6959 9.94728 18.9732 9.94728 19.2944C9.94728 19.6156 10.0644 19.8925 10.2986 20.1251ZM11.177 15.1667C11.665 15.1667 12.08 14.9964 12.422 14.6557C12.764 14.3151 12.9346 13.9021 12.9339 13.4167C12.9339 12.9306 12.7629 12.5172 12.4209 12.1766C12.0789 11.8359 11.6643 11.666 11.177 11.6667C10.689 11.6667 10.274 11.8371 9.93206 12.1777C9.59006 12.5184 9.41946 12.9314 9.42024 13.4167C9.42024 13.9029 9.59123 14.3162 9.93323 14.6569C10.2752 14.9976 10.6898 15.1675 11.177 15.1667ZM14.1051 25.6667C11.4308 25.6667 9.20044 24.7529 7.41396 22.9251C5.62748 21.0973 4.73463 18.8223 4.73541 16.1001C4.73541 14.8945 5.00869 13.689 5.55526 12.4834C6.10182 11.2779 6.78502 10.1209 7.60487 9.01258C8.42471 7.90425 9.31288 6.86397 10.2694 5.89175C11.2258 4.91953 12.114 4.07369 12.9339 3.35425C13.09 3.19869 13.2708 3.08708 13.4761 3.01941C13.6815 2.95175 13.8911 2.91753 14.1051 2.91675C14.3198 2.91675 14.5294 2.95097 14.734 3.01941C14.9386 3.08786 15.1193 3.19947 15.2763 3.35425C16.0961 4.07369 16.9843 4.91953 17.9408 5.89175C18.8972 6.86397 19.7854 7.90425 20.6053 9.01258C21.4251 10.1209 22.1083 11.2779 22.6549 12.4834C23.2014 13.689 23.4747 14.8945 23.4747 16.1001C23.4747 18.8223 22.5815 21.0973 20.795 22.9251C19.0085 24.7529 16.7785 25.6667 14.1051 25.6667ZM14.1051 23.3334C16.1352 23.3334 17.8139 22.6478 19.1412 21.2766C20.4686 19.9054 21.1323 18.1799 21.1323 16.1001C21.1323 14.6806 20.5416 13.0765 19.3603 11.2876C18.1789 9.49869 16.4272 7.54453 14.1051 5.42508C11.7822 7.54453 10.0304 9.49869 8.84986 11.2876C7.66928 13.0765 7.07861 14.6806 7.07783 16.1001C7.07783 18.1806 7.74151 19.9065 9.06888 21.2777C10.3962 22.649 12.075 23.3342 14.1051 23.3334Z" fill="white"/>
</g>
</svg>
