<svg width="14" height="17" viewBox="0 0 14 17" fill="none" xmlns="http://www.w3.org/2000/svg">
<g id="Group">
<path id="Vector" d="M7 9.25C8.24264 9.25 9.25 8.24264 9.25 7C9.25 5.75736 8.24264 4.75 7 4.75C5.75736 4.75 4.75 5.75736 4.75 7C4.75 8.24264 5.75736 9.25 7 9.25Z" stroke="#7B7980" stroke-linecap="round" stroke-linejoin="round"/>
<path id="Vector_2" d="M7 1C5.4087 1 3.88258 1.63214 2.75736 2.75736C1.63214 3.88258 1 5.4087 1 7C1 8.419 1.3015 9.3475 2.125 10.375L7 16L11.875 10.375C12.6985 9.3475 13 8.419 13 7C13 5.4087 12.3679 3.88258 11.2426 2.75736C10.1174 1.63214 8.5913 1 7 1Z" stroke="#7B7980" stroke-linecap="round" stroke-linejoin="round"/>
</g>
</svg>
