<svg width="16" height="16" viewBox="0 0 16 16" fill="none" xmlns="http://www.w3.org/2000/svg">
<g id="Group 117">
<path id="Vector" d="M8 13.4444C8.71497 13.4444 9.42295 13.3036 10.0835 13.03C10.744 12.7564 11.3442 12.3554 11.8498 11.8498C12.3554 11.3442 12.7564 10.744 13.03 10.0835C13.3036 9.42295 13.4444 8.71497 13.4444 8M8 13.4444C6.55604 13.4444 5.17123 12.8708 4.1502 11.8498C3.12916 10.8288 2.55556 9.44396 2.55556 8M8 13.4444V15M13.4444 8C13.4444 7.28503 13.3036 6.57705 13.03 5.9165C12.7564 5.25595 12.3554 4.65576 11.8498 4.1502C11.3442 3.64463 10.744 3.2436 10.0835 2.96999C9.42295 2.69638 8.71497 2.55556 8 2.55556M13.4444 8H15M8 2.55556C6.55604 2.55556 5.17123 3.12916 4.1502 4.1502C3.12916 5.17123 2.55556 6.55604 2.55556 8M8 2.55556V1M2.55556 8H1" stroke="#131214" stroke-width="2" stroke-linecap="round" stroke-linejoin="round"/>
</g>
</svg>
