<svg width="30" height="30" viewBox="0 0 30 30" fill="none" xmlns="http://www.w3.org/2000/svg">
<path id="Vector" d="M14.999 1V3.8M5.10032 5.102L7.07446 7.076M26.1998 15H29M24.8977 5.102L22.9236 7.076M20.5252 15.91C20.6975 14.8663 20.5707 13.7951 20.1594 12.8205C19.748 11.8459 19.0691 11.0078 18.2011 10.4031C17.3331 9.79836 16.3115 9.45186 15.2547 9.40367C14.1979 9.35549 13.1491 9.60759 12.2296 10.1308M2.39813 26.2C1.76884 25.3602 1.33644 24.3896 1.13291 23.3602C0.92938 22.3307 0.959933 21.2686 1.22231 20.2526C1.48468 19.2365 1.97217 18.2924 2.6487 17.4902C3.32522 16.6879 4.17348 16.048 5.13072 15.6178C6.08796 15.1876 7.12967 14.9782 8.1788 15.0049C9.22793 15.0316 10.2576 15.2939 11.1917 15.7722C12.1258 16.2506 12.9404 16.9329 13.5752 17.7685C13.8981 18.1937 14.1703 18.653 14.3875 19.1371C14.7545 19.9549 15.5027 20.6 16.3991 20.6V20.6C17.251 20.5987 18.0831 20.8565 18.7851 21.3392C19.4871 21.8218 20.0257 22.5065 20.3295 23.3023C20.6332 24.0982 20.6878 24.9676 20.486 25.7951C20.2841 26.6227 19.8354 27.3694 19.1993 27.936M13.5989 26.2V29M7.99853 24.8V27.6" stroke="white" stroke-width="2" stroke-linecap="round" stroke-linejoin="round"/>
</svg>
