<svg width="24" height="28" viewBox="0 0 24 28" fill="none" xmlns="http://www.w3.org/2000/svg">
<g id="Frame">
<path id="Vector" d="M2.15887 8.89981C4.24688 6.79981 5.89625 5.13941 10.3723 8.10181C12.5224 9.52421 14.2567 10.0618 15.6993 10.059C18.2271 10.059 19.8657 8.41261 21.282 6.98881C21.5251 6.74109 21.6763 6.39221 21.7035 6.01613C21.7308 5.64005 21.6319 5.26634 21.4279 4.97421C21.3283 4.83087 21.2053 4.71235 21.066 4.62568C20.9267 4.53902 20.7739 4.48596 20.6168 4.46964C20.4597 4.45332 20.3014 4.47408 20.1512 4.53069C20.0011 4.5873 19.8621 4.67861 19.7426 4.79921C17.6558 6.90201 16.0052 8.56241 11.5292 5.59721C5.61538 1.68701 2.84491 4.47301 0.619452 6.71301C0.37653 6.96093 0.225572 7.30991 0.198575 7.68598C0.171579 8.06205 0.270665 8.43566 0.474833 8.72761C0.57442 8.87072 0.697502 8.98897 0.836796 9.07536C0.976089 9.16176 1.12876 9.21455 1.28578 9.2306C1.4428 9.24666 1.60097 9.22565 1.75094 9.16884C1.90091 9.11202 2.03962 9.02054 2.15887 8.89981ZM19.7426 11.949C17.6558 14.049 16.0052 15.7122 11.5292 12.747C5.61538 8.83401 2.84491 11.6214 0.619452 13.86C0.37653 14.1079 0.225572 14.4569 0.198575 14.833C0.171579 15.2091 0.270665 15.5827 0.474833 15.8746C0.574248 16.0179 0.697199 16.1364 0.836406 16.2231C0.975613 16.3097 1.12825 16.3628 1.28527 16.3791C1.4423 16.3954 1.60052 16.3746 1.75057 16.3181C1.90063 16.2615 2.03947 16.1702 2.15887 16.0496C4.24688 13.9482 5.89625 12.2878 10.3723 15.2488C12.5224 16.674 14.2567 17.2088 15.6993 17.2088C18.2271 17.2088 19.8657 15.5624 21.282 14.1358C21.5253 13.8885 21.6767 13.5398 21.7039 13.1639C21.7311 12.7879 21.6321 12.4144 21.4279 12.1226C21.3283 11.9792 21.2053 11.8607 21.0659 11.774C20.9266 11.6874 20.7738 11.6344 20.6166 11.6182C20.4594 11.602 20.3011 11.6229 20.151 11.6798C20.0008 11.7366 19.862 11.8281 19.7426 11.949ZM19.7426 19.0974C17.6558 21.2002 16.0052 22.8606 11.5292 19.8982C5.61538 15.9852 2.84491 18.7712 0.619452 21.0112C0.37653 21.2591 0.225572 21.6081 0.198575 21.9842C0.171579 22.3603 0.270665 22.7339 0.474833 23.0258C0.574322 23.1691 0.697365 23.2875 0.836662 23.374C0.975959 23.4605 1.12867 23.5133 1.28574 23.5294C1.4428 23.5455 1.60102 23.5244 1.75101 23.4675C1.90099 23.4106 2.03969 23.3189 2.15887 23.198C4.24688 21.098 5.89625 19.439 10.3723 22.4C12.5224 23.8224 14.2567 24.36 15.6993 24.36C18.2271 24.36 19.8657 22.7108 21.282 21.287C21.5251 21.0393 21.6763 20.6904 21.7035 20.3143C21.7308 19.9383 21.6319 19.5645 21.4279 19.2724C21.3282 19.1292 21.2051 19.0109 21.0658 18.9243C20.9265 18.8378 20.7738 18.7848 20.6168 18.7684C20.4597 18.7521 20.3014 18.7728 20.1513 18.8293C20.0011 18.8858 19.8622 18.977 19.7426 19.0974Z" fill="white"/>
</g>
</svg>
