<svg width="54" height="54" viewBox="0 0 54 54" fill="none" xmlns="http://www.w3.org/2000/svg">
<g id="Group">
<path id="Vector" d="M11.52 16.2L7.92 7.83L16.29 11.43C14.4 12.78 12.78 14.4 11.52 16.2ZM42.48 37.8L46.08 46.17L37.8 42.57C39.6 41.22 41.22 39.6 42.48 37.8ZM8.46 30.33L0 27L8.46 23.67C8.19 24.75 8.1 25.83 8.1 27C8.1 28.17 8.19 29.25 8.46 30.33ZM45.54 23.67L54 27L45.54 30.33C45.72 29.25 45.9 28.08 45.9 27C45.9 25.83 45.81 24.75 45.54 23.67ZM16.2 42.48L7.83 46.08L11.43 37.71C12.78 39.6 14.4 41.22 16.2 42.48ZM37.8 11.52L46.17 7.92L42.57 16.29C41.22 14.4 39.6 12.78 37.8 11.52ZM30.33 45.54L27 54L23.67 45.54C24.75 45.72 25.92 45.9 27 45.9C28.08 45.9 29.25 45.81 30.33 45.54ZM23.67 8.46L27 0L30.33 8.46C29.25 8.19 28.17 8.1 27 8.1C25.83 8.1 24.75 8.19 23.67 8.46Z" fill="#FFCE31"/>
<path id="Vector_2" d="M27 9.9001C36.4441 9.9001 44.1 17.556 44.1 27.0001C44.1 36.4442 36.4441 44.1001 27 44.1001C17.5559 44.1001 9.89999 36.4442 9.89999 27.0001C9.89999 17.556 17.5559 9.9001 27 9.9001Z" fill="#FFCE31"/>
</g>
</svg>
