<svg width="30" height="30" viewBox="0 0 30 30" fill="none" xmlns="http://www.w3.org/2000/svg">
<path id="Vector" d="M29 19.8904C26.3581 20.9524 23.4622 21.2148 20.6724 20.6451C17.8825 20.0753 15.3216 18.6985 13.3081 16.6858C11.2946 14.6731 9.91731 12.1132 9.34733 9.32442C8.77736 6.53562 9.03989 3.64087 10.1023 1C6.97371 2.25968 4.38093 4.56799 2.7684 7.52922C1.15587 10.4905 0.62403 13.9202 1.26405 17.2304C1.90407 20.5407 3.67609 23.5253 6.27634 25.6727C8.87658 27.82 12.1431 28.9964 15.5159 29C18.4163 29.0001 21.2504 28.1326 23.6534 26.5091C26.0564 24.8857 27.9185 22.5806 29 19.8904Z" stroke="white" stroke-width="2" stroke-linecap="round" stroke-linejoin="round"/>
</svg>
