<svg width="28" height="28" viewBox="0 0 28 28" fill="none" xmlns="http://www.w3.org/2000/svg">
<g id="Frame">
<path id="Vector" d="M14 7.00008C16.1452 6.99295 18.2489 7.59133 20.0692 8.72643C21.8894 9.86153 23.3525 11.4873 24.29 13.4167C22.365 17.3484 18.4217 19.8334 14 19.8334C9.57835 19.8334 5.63502 17.3484 3.71002 13.4167C4.64757 11.4873 6.11059 9.86153 7.93088 8.72643C9.75117 7.59133 11.8548 6.99295 14 7.00008ZM14 4.66675C8.16669 4.66675 3.18502 8.29508 1.16669 13.4167C3.18502 18.5384 8.16669 22.1667 14 22.1667C19.8334 22.1667 24.815 18.5384 26.8334 13.4167C24.815 8.29508 19.8334 4.66675 14 4.66675ZM14 10.5001C14.7736 10.5001 15.5154 10.8074 16.0624 11.3544C16.6094 11.9013 16.9167 12.6432 16.9167 13.4167C16.9167 14.1903 16.6094 14.9322 16.0624 15.4791C15.5154 16.0261 14.7736 16.3334 14 16.3334C13.2265 16.3334 12.4846 16.0261 11.9376 15.4791C11.3906 14.9322 11.0834 14.1903 11.0834 13.4167C11.0834 12.6432 11.3906 11.9013 11.9376 11.3544C12.4846 10.8074 13.2265 10.5001 14 10.5001ZM14 8.16675C11.1067 8.16675 8.75002 10.5234 8.75002 13.4167C8.75002 16.3101 11.1067 18.6667 14 18.6667C16.8934 18.6667 19.25 16.3101 19.25 13.4167C19.25 10.5234 16.8934 8.16675 14 8.16675Z" fill="white"/>
</g>
</svg>
