<svg width="32" height="28" viewBox="0 0 32 28" fill="none" xmlns="http://www.w3.org/2000/svg">
<path id="Vector" d="M15.004 0C13.3867 3.42375e-05 11.8194 0.560398 10.5687 1.58575C9.31799 2.61111 8.46117 4.03812 8.144 5.624L8.03 6.204C7.96492 6.58847 8.05212 6.98317 8.27311 7.30444C8.4941 7.62571 8.83151 7.84829 9.21383 7.92502C9.59614 8.00174 9.99331 7.92657 10.3211 7.71544C10.649 7.50431 10.8817 7.17381 10.97 6.794L11.088 6.212C11.285 5.24204 11.8351 4.37973 12.6315 3.79208C13.4279 3.20442 14.4141 2.93326 15.399 3.03111C16.384 3.12895 17.2975 3.58884 17.9628 4.3217C18.628 5.05456 18.9976 6.00823 19 6.998C19 8.05905 18.5786 9.07667 17.8286 9.82713C17.0785 10.5776 16.0611 10.9995 15 11H1.5C1.10218 11 0.720644 11.158 0.43934 11.4393C0.158035 11.7206 0 12.1022 0 12.5C0 12.8978 0.158035 13.2794 0.43934 13.5607C0.720644 13.842 1.10218 14 1.5 14H15C16.8276 13.9568 18.5658 13.2007 19.8432 11.893C21.1207 10.5854 21.8361 8.83002 21.8367 7.00195C21.8372 5.17389 21.1228 3.4181 19.846 2.10974C18.5693 0.801382 16.8315 0.0442089 15.004 0ZM27.1 10C26.1905 10.0004 25.2991 10.254 24.5256 10.7322C23.752 11.2105 23.1268 11.8946 22.72 12.708L22.66 12.828C22.5617 13.0049 22.5002 13.1999 22.4792 13.4012C22.4582 13.6026 22.4782 13.8061 22.538 13.9994C22.5977 14.1928 22.696 14.3721 22.8269 14.5265C22.9577 14.681 23.1185 14.8073 23.2995 14.8979C23.4805 14.9885 23.678 15.0416 23.88 15.0539C24.082 15.0662 24.2845 15.0375 24.4751 14.9695C24.6658 14.9015 24.8407 14.7956 24.9893 14.6582C25.1379 14.5208 25.2572 14.3547 25.34 14.17L25.402 14.05C25.5938 13.6681 25.9087 13.362 26.2959 13.1811C26.683 13.0002 27.1199 12.9551 27.5359 13.0532C27.9518 13.1512 28.3226 13.3866 28.5883 13.7214C28.8539 14.0561 28.999 14.4706 29 14.898V15C29 15.5304 28.7893 16.0391 28.4142 16.4142C28.0391 16.7893 27.5304 17 27 17H1.5C1.10218 17 0.720644 17.158 0.43934 17.4393C0.158035 17.7206 0 18.1022 0 18.5C0 18.8978 0.158035 19.2794 0.43934 19.5607C0.720644 19.842 1.10218 20 1.5 20H20.75C21.2141 20.0008 21.6589 20.1859 21.9866 20.5147C22.3142 20.8434 22.4978 21.2889 22.497 21.753C22.4962 22.2171 22.3111 22.6619 21.9823 22.9896C21.6536 23.3172 21.2081 23.5008 20.744 23.5C20.4544 23.5001 20.1692 23.4291 19.9136 23.2931C19.658 23.157 19.4397 22.9602 19.278 22.72L19.246 22.672C19.0226 22.3462 18.6797 22.1217 18.2917 22.0473C17.9037 21.9728 17.5021 22.0544 17.1739 22.2743C16.8457 22.4942 16.6176 22.8347 16.539 23.2218C16.4603 23.609 16.5376 24.0115 16.754 24.342L16.786 24.388C17.2217 25.0379 17.8107 25.5705 18.501 25.9388C19.1912 26.3072 19.9616 26.4999 20.744 26.5C21.5191 26.4999 22.2825 26.3103 22.9676 25.9478C23.6528 25.5853 24.2389 25.0608 24.675 24.42C25.1112 23.7792 25.3841 23.0415 25.47 22.2712C25.5559 21.5008 25.4522 20.7211 25.168 20H27C28.3261 20 29.5979 19.4732 30.5355 18.5355C31.4732 17.5979 32 16.3261 32 15V14.9C32 13.6004 31.4838 12.3541 30.5648 11.4352C29.6459 10.5162 28.3996 10 27.1 10ZM4 4C4.53043 4 5.03914 3.78929 5.41421 3.41421C5.78929 3.03914 6 2.53043 6 2C6 1.46957 5.78929 0.960859 5.41421 0.585786C5.03914 0.210714 4.53043 0 4 0C3.46957 0 2.96086 0.210714 2.58579 0.585786C2.21071 0.960859 2 1.46957 2 2C2 2.53043 2.21071 3.03914 2.58579 3.41421C2.96086 3.78929 3.46957 4 4 4ZM12 26C12 26.5304 11.7893 27.0391 11.4142 27.4142C11.0391 27.7893 10.5304 28 10 28C9.46957 28 8.96086 27.7893 8.58579 27.4142C8.21071 27.0391 8 26.5304 8 26C8 25.4696 8.21071 24.9609 8.58579 24.5858C8.96086 24.2107 9.46957 24 10 24C10.5304 24 11.0391 24.2107 11.4142 24.5858C11.7893 24.9609 12 25.4696 12 26ZM28 6C28.5304 6 29.0391 5.78929 29.4142 5.41421C29.7893 5.03914 30 4.53043 30 4C30 3.46957 29.7893 2.96086 29.4142 2.58579C29.0391 2.21071 28.5304 2 28 2C27.4696 2 26.9609 2.21071 26.5858 2.58579C26.2107 2.96086 26 3.46957 26 4C26 4.53043 26.2107 5.03914 26.5858 5.41421C26.9609 5.78929 27.4696 6 28 6Z" fill="white"/>
</svg>
