<svg width="68" height="68" viewBox="0 0 68 68" fill="none" xmlns="http://www.w3.org/2000/svg">
<g id="Layer 2">
<g id="icons Q2">
<path id="Vector" d="M36.2454 35.7823L21.3334 37.316C21.0434 37.328 20.7599 37.4064 20.5049 37.5451C20.2498 37.6838 20.03 37.8791 19.8621 38.116C19.6943 38.3529 19.583 38.6251 19.5368 38.9117C19.4905 39.1983 19.5106 39.4917 19.5954 39.7694C19.7234 40.248 20.0165 40.666 20.4229 40.9494C20.8293 41.2328 21.3227 41.3634 21.8161 41.3181L38.6201 39.5188C38.8829 39.5031 39.1395 39.4331 39.3738 39.313C39.6081 39.1929 39.8149 39.0254 39.981 38.8212C40.1471 38.6169 40.269 38.3804 40.3389 38.1266C40.4088 37.8728 40.4252 37.6072 40.387 37.3467L38.7284 20.5283C38.6723 20.0361 38.444 19.5795 38.0838 19.2393C37.7237 18.8991 37.2548 18.6972 36.7601 18.6693C36.471 18.6428 36.1797 18.6829 35.9085 18.7865C35.6373 18.8901 35.3934 19.0545 35.1957 19.267C34.9979 19.4795 34.8514 19.7345 34.7676 20.0125C34.6837 20.2904 34.6646 20.5839 34.7118 20.8703L36.2454 35.7823Z" fill="white"/>
</g>
</g>
</svg>
